<?xml version="1.0" standalone="no"?>
<!DOCTYPE svg PUBLIC "-//W3C//DTD SVG 20010904//EN"
 "http://www.w3.org/TR/2001/REC-SVG-20010904/DTD/svg10.dtd">
<svg version="1.0" xmlns="http://www.w3.org/2000/svg"
 width="200.000000pt" height="200.000000pt" viewBox="0 0 200.000000 200.000000"
 preserveAspectRatio="xMidYMid meet">
<metadata>
Created by potrace 1.16, written by Peter Selinger 2001-2019
</metadata>
<g transform="translate(0.000000,200.000000) scale(0.100000,-0.100000)"
fill="#000000" stroke="none">
<path d="M636 1963 c-3 -21 -10 -83 -16 -138 -6 -55 -13 -117 -16 -137 l-6
-38 50 0 c59 0 58 -2 68 116 3 45 10 87 14 94 6 10 125 0 566 -49 307 -34 561
-64 563 -67 5 -5 -115 -1104 -121 -1109 -2 -1 -73 6 -158 16 -85 10 -161 18
-167 18 -10 1 -13 -43 -13 -189 0 -104 1 -190 3 -191 9 -1 397 -45 397 -44 0
1 40 363 89 805 50 443 89 805 88 806 -4 4 -1282 144 -1309 144 -23 0 -27 -5
-32 -37z"/>
<path d="M20 810 l0 -810 675 0 675 0 0 810 0 810 -675 0 -675 0 0 -810z
m1250 125 l0 -565 -575 0 -575 0 0 565 0 565 575 0 575 0 0 -565z"/>
</g>
</svg>
