<?xml version="1.0" standalone="no"?>
<!DOCTYPE svg PUBLIC "-//W3C//DTD SVG 20010904//EN"
 "http://www.w3.org/TR/2001/REC-SVG-20010904/DTD/svg10.dtd">
<svg version="1.0" xmlns="http://www.w3.org/2000/svg"
 width="728.000000pt" height="568.000000pt" viewBox="0 0 728.000000 568.000000"
 preserveAspectRatio="xMidYMid meet">
<metadata>
Created by potrace 1.16, written by Peter Selinger 2001-2019
</metadata>
<g transform="translate(0.000000,568.000000) scale(0.100000,-0.100000)"
fill="#000000" stroke="none">
<path d="M3177 5613 c-10 -17 -57 -433 -50 -445 2 -5 28 -8 58 -8 63 0 58 -12
78 180 l12 115 30 -1 c31 -2 225 -22 460 -49 186 -22 373 -43 580 -65 362 -40
427 -48 435 -57 4 -4 4 -35 0 -68 -5 -33 -16 -125 -25 -205 -50 -464 -83 -767
-100 -905 -8 -66 -18 -158 -21 -203 -5 -55 -12 -86 -20 -89 -7 -3 -68 2 -136
11 -68 9 -165 19 -215 22 l-93 7 0 -241 0 -242 23 -4 c12 -3 74 -10 137 -16
63 -6 168 -18 234 -26 65 -9 120 -14 121 -12 2 2 11 69 20 148 8 80 22 204 30
275 21 184 42 371 66 585 77 707 88 800 104 933 21 167 21 165 -17 171 -58 9
-286 35 -533 61 -132 14 -294 32 -360 40 -66 8 -185 22 -265 30 -278 29 -505
55 -527 60 -12 3 -24 2 -26 -2z"/>
<path d="M2360 4040 l0 -1060 880 0 880 0 0 1060 0 1060 -880 0 -880 0 0
-1060z m1640 175 l0 -745 -760 0 -760 0 0 745 0 745 760 0 760 0 0 -745z"/>
<path d="M208 2664 c-21 -6 -29 -27 -17 -45 6 -11 48 -15 186 -19 198 -6 221
-12 289 -78 88 -85 114 -226 61 -334 -32 -64 -80 -111 -146 -142 -40 -18 -69
-21 -218 -24 -143 -3 -172 -6 -177 -19 -4 -9 -1 -22 6 -30 10 -12 42 -14 183
-11 162 3 173 5 232 32 234 107 281 410 90 581 -77 70 -134 86 -317 90 -85 2
-162 2 -172 -1z"/>
<path d="M4658 2663 c-27 -7 -23 -49 5 -57 40 -11 897 -7 918 4 10 6 19 17 19
25 0 8 -9 19 -19 25 -19 10 -885 13 -923 3z"/>
<path d="M35 2648 c-3 -7 -4 -285 -3 -618 l3 -605 25 0 25 0 0 615 0 615 -23
3 c-12 2 -24 -3 -27 -10z"/>
<path d="M1395 2648 c-3 -7 -4 -285 -3 -618 l3 -605 25 0 25 0 0 615 0 615
-23 3 c-12 2 -24 -3 -27 -10z"/>
<path d="M2305 2648 c-3 -7 -4 -285 -3 -618 l3 -605 25 0 25 0 3 618 2 617
-25 0 c-14 0 -28 -6 -30 -12z"/>
<path d="M3452 2645 c-162 -39 -326 -172 -401 -325 -68 -140 -84 -256 -55
-397 77 -372 451 -588 810 -468 189 64 330 210 400 415 30 87 25 261 -9 365
-65 197 -236 357 -437 410 -67 18 -235 18 -308 0z m298 -60 c150 -40 288 -152
355 -287 112 -230 74 -468 -104 -648 -86 -87 -166 -131 -279 -155 -291 -62
-572 109 -658 401 -23 78 -23 219 0 299 55 188 208 338 397 389 70 19 219 20
289 1z"/>
<path d="M6475 2646 c-184 -52 -325 -167 -404 -330 -49 -101 -64 -168 -64
-276 2 -426 415 -721 819 -585 265 89 436 339 421 615 -14 257 -159 457 -402
555 -62 25 -85 29 -195 32 -86 2 -141 -2 -175 -11z m328 -70 c149 -53 259
-151 327 -291 108 -223 66 -466 -113 -645 -299 -299 -822 -153 -932 260 -22
83 -19 224 6 306 55 181 209 329 390 378 30 8 99 15 154 15 81 0 113 -4 168
-23z"/>
<path d="M5095 2498 c-3 -7 -4 -251 -3 -543 3 -509 4 -530 22 -533 10 -2 22 2
27 10 14 22 11 1052 -3 1066 -16 16 -37 15 -43 0z"/>
<path d="M1568 2089 c-22 -13 -23 -45 -2 -53 9 -3 152 -6 319 -6 283 0 305 1
314 18 24 45 11 47 -311 49 -197 2 -309 -1 -320 -8z"/>
<path d="M5168 1293 c-23 -6 -24 -49 -2 -57 9 -3 86 -6 172 -6 144 0 161 -2
208 -24 109 -51 168 -144 168 -266 1 -62 -4 -84 -26 -126 -31 -59 -84 -108
-147 -138 -39 -17 -72 -21 -216 -26 l-170 -5 0 -25 0 -25 155 -3 c178 -3 251
13 331 72 169 125 184 385 30 529 -63 59 -115 85 -198 97 -68 10 -272 12 -305
3z"/>
<path d="M450 1271 c-79 -25 -113 -45 -150 -87 -62 -71 -83 -165 -56 -256 31
-106 126 -173 371 -258 226 -79 313 -137 350 -233 24 -63 17 -143 -17 -194
-57 -85 -202 -139 -348 -130 -109 7 -189 35 -290 103 -85 57 -107 64 -117 38
-13 -35 109 -123 232 -167 242 -87 520 -10 595 165 18 43 22 65 18 123 -6 81
-24 123 -82 183 -57 60 -136 102 -314 167 -235 85 -298 123 -333 200 -48 105
6 224 123 275 74 32 231 39 313 15 71 -20 141 -55 183 -89 59 -50 109 -20 57
34 -35 36 -151 98 -219 116 -74 20 -248 17 -316 -5z"/>
<path d="M2050 1274 c-270 -70 -470 -324 -470 -599 0 -160 69 -326 184 -440
191 -190 468 -238 711 -121 94 45 177 112 173 140 -5 34 -32 30 -84 -14 -138
-115 -320 -156 -498 -110 -109 28 -169 63 -257 150 -141 139 -194 314 -154
505 35 169 144 309 298 385 204 100 417 78 605 -65 36 -27 69 -45 77 -41 72
27 -117 169 -280 211 -74 19 -231 19 -305 -1z"/>
<path d="M3605 1275 c-137 -38 -282 -143 -362 -263 -226 -341 -55 -809 342
-935 99 -31 261 -31 360 0 197 63 356 222 418 418 28 91 30 251 3 340 -63 212
-239 387 -442 439 -76 20 -249 20 -319 1z m311 -66 c104 -32 157 -63 234 -136
196 -184 232 -486 85 -708 -134 -202 -375 -295 -609 -235 -108 27 -169 63
-256 150 -147 146 -200 331 -150 525 51 200 212 362 406 409 90 22 210 20 290
-5z"/>
<path d="M4995 1278 c-3 -7 -4 -285 -3 -618 l3 -605 25 0 25 0 0 615 0 615
-23 3 c-12 2 -24 -3 -27 -10z"/>
<path d="M6336 1275 c-3 -8 2 -21 10 -30 23 -22 715 -23 734 0 7 8 10 22 6 30
-8 22 -741 23 -750 0z"/>
<path d="M6342 1128 c-9 -9 -12 -124 -12 -454 0 -389 2 -444 16 -458 19 -20
19 -20 38 0 14 13 16 48 16 230 l0 214 329 0 c280 0 330 2 341 15 10 12 10 18
0 30 -11 13 -61 15 -341 15 l-329 0 0 191 c0 112 -4 198 -10 210 -12 22 -30
25 -48 7z"/>
<path d="M6340 95 c-10 -12 -10 -18 0 -30 19 -23 738 -23 746 0 4 8 1 22 -6
30 -19 23 -721 22 -740 0z"/>
</g>
</svg>
